<svg width="415" height="446" viewBox="0 0 415 446" fill="none" xmlns="http://www.w3.org/2000/svg">
<path d="M310.849 294.826H255.122L142.638 187.615V294.826H105.753V158.629H163.422L274.078 263.862V158.629H310.849V294.826Z" fill="#50C929"/>
<path fill-rule="evenodd" clip-rule="evenodd" d="M75.3089 277.752L75.3089 328.301H188.642L242.166 374.965V328.301H339.691L339.691 277.752V121.776H330.185H83.2129H75.3089V277.752ZM60.3242 89.7297C85.3171 36.8512 141.454 -2.85194e-06 206.699 0C271.944 2.85194e-06 328.081 36.8512 353.073 89.7297H371.737V144.724C396.909 154.019 415 179.69 415 209.903C415 240.117 396.909 265.788 371.737 275.083V360.347H274.212V445.421L176.634 360.347H43.2625V275.083C18.0905 265.788 0 240.117 0 209.903C0 179.69 18.0905 154.019 43.2625 144.724V89.7297H60.3242ZM314.714 89.7297C292.81 58.0658 254.274 35.4196 206.699 35.4196C159.124 35.4196 120.588 58.0658 98.6839 89.7297H314.714Z" fill="#004FAB"/>
</svg>
