<?xml version="1.0" standalone="no"?>
<!DOCTYPE svg PUBLIC "-//W3C//DTD SVG 20010904//EN"
 "http://www.w3.org/TR/2001/REC-SVG-20010904/DTD/svg10.dtd">
<svg version="1.0" xmlns="http://www.w3.org/2000/svg"
 width="892.000000pt" height="892.000000pt" viewBox="0 0 892.000000 892.000000"
 preserveAspectRatio="xMidYMid meet">
<metadata>
Created by potrace 1.14, written by Peter Selinger 2001-2017
</metadata>
<g transform="translate(0.000000,892.000000) scale(0.100000,-0.100000)"
fill="#000000" stroke="none">
<path d="M4229 8915 c-2 -2 -40 -6 -84 -9 -44 -3 -93 -8 -110 -10 -16 -3 -48
-7 -70 -10 -50 -7 -103 -16 -135 -22 -14 -3 -34 -6 -45 -8 -11 -1 -26 -5 -32
-9 -7 -5 -13 -6 -13 -4 0 4 -64 -10 -125 -27 -5 -1 -26 -6 -45 -10 -88 -20
-423 -138 -445 -157 -5 -5 -19 -9 -31 -9 -12 0 -24 -3 -26 -7 -1 -5 -59 -36
-128 -70 -69 -34 -150 -76 -180 -94 -76 -43 -234 -150 -238 -160 -2 -5 -8 -9
-14 -9 -9 0 -147 -104 -217 -164 -71 -61 -334 -330 -381 -391 -30 -38 -57 -72
-60 -75 -19 -17 -200 -285 -200 -295 0 -4 -8 -19 -19 -33 -10 -15 -40 -70 -67
-122 l-49 -95 -170 0 -170 0 0 -548 0 -549 -35 -17 c-19 -9 -38 -18 -42 -19
-23 -7 -83 -38 -86 -44 -2 -5 -8 -8 -13 -8 -14 0 -139 -82 -139 -92 0 -4 -4
-8 -10 -8 -27 0 -199 -175 -273 -278 -74 -103 -160 -272 -194 -382 -33 -107
-27 -79 -59 -255 -4 -22 -8 -112 -8 -200 0 -158 8 -255 25 -286 4 -9 6 -19 3
-22 -6 -5 31 -136 58 -212 38 -104 175 -341 232 -401 6 -6 36 -38 68 -71 105
-111 216 -193 352 -259 50 -25 98 -49 106 -53 13 -7 15 -113 15 -857 l0 -849
1325 -2 c729 0 1330 -2 1336 -2 6 -1 24 -13 41 -28 17 -16 53 -47 80 -69 26
-23 59 -52 73 -64 14 -12 49 -43 79 -68 30 -26 59 -51 65 -57 6 -5 45 -39 86
-75 41 -36 77 -67 80 -70 3 -3 39 -34 80 -69 41 -36 85 -74 96 -85 12 -12 32
-30 45 -40 37 -30 253 -218 264 -230 9 -10 102 -90 164 -141 13 -11 31 -27 40
-35 9 -9 52 -47 96 -85 44 -39 82 -72 85 -75 3 -3 34 -30 70 -60 36 -30 74
-64 86 -75 12 -11 45 -40 74 -65 29 -25 69 -60 87 -77 19 -18 37 -33 40 -33 3
0 19 -13 35 -30 15 -16 30 -30 33 -30 2 0 14 -10 27 -23 37 -35 122 -107 128
-107 3 0 5 380 5 845 0 465 2 845 5 846 3 0 439 2 970 3 531 2 967 4 970 4 3
1 5 383 5 848 0 742 2 848 15 855 8 5 41 20 74 35 122 54 266 156 375 265 54
54 171 202 171 215 0 4 6 15 14 23 27 30 142 271 129 271 -3 0 -1 6 5 13 15
18 53 171 69 282 15 97 7 374 -12 465 -3 14 -8 36 -10 50 -11 69 -55 200 -97
290 -32 69 -107 202 -118 210 -4 3 -11 12 -16 21 -34 62 -167 200 -266 278
-73 56 -213 140 -266 159 -73 25 -68 -24 -67 582 l0 545 -184 0 -184 1 -22 34
c-13 19 -21 38 -19 42 3 4 0 9 -6 13 -6 3 -17 22 -25 41 -8 20 -27 54 -42 77
-16 23 -37 59 -48 80 -11 21 -58 91 -105 156 -136 189 -175 236 -330 392 -145
145 -201 195 -336 295 -43 33 -80 62 -82 67 -2 4 -8 7 -12 7 -5 0 -37 20 -72
44 -35 24 -89 59 -121 77 -33 19 -71 41 -85 50 -84 50 -371 185 -412 194 -8 2
-31 10 -51 19 -43 18 -252 83 -329 101 -30 8 -68 17 -85 21 -37 9 -36 9 -109
24 -33 7 -69 13 -80 15 -12 1 -46 6 -76 10 -30 4 -68 9 -85 11 -16 2 -48 6
-70 9 -49 6 -541 15 -546 10z m346 -709 c61 -2 110 -5 110 -5 0 -1 25 -3 55
-6 30 -2 69 -6 85 -9 17 -3 50 -7 75 -10 25 -3 54 -8 65 -10 11 -3 54 -12 95
-21 82 -17 174 -43 290 -82 76 -25 331 -132 340 -142 3 -4 28 -17 55 -31 28
-14 52 -28 53 -32 2 -5 9 -8 15 -8 10 -1 108 -60 142 -87 6 -4 33 -23 60 -42
98 -68 212 -166 323 -280 143 -146 148 -151 144 -162 -1 -5 2 -9 7 -9 11 0
107 -129 104 -138 -4 -8 -4294 -9 -4299 -1 -4 7 36 62 119 164 77 95 284 293
392 376 138 105 293 199 443 271 70 33 136 64 147 68 11 4 31 12 45 18 31 14
177 63 199 67 9 2 17 4 19 4 1 1 4 1 7 1 3 1 22 7 43 14 34 12 148 38 230 52
15 3 34 7 42 9 8 2 42 7 75 11 33 3 69 8 80 10 11 2 81 7 155 10 74 3 136 7
138 9 2 2 11 1 20 -1 9 -2 67 -6 127 -8z m2525 -1727 c3 -4 5 -933 5 -2066
l-1 -2058 -964 -2 c-531 0 -970 -1 -976 -2 -8 -1 -11 -136 -10 -461 1 -253 -1
-460 -4 -460 -5 0 -29 19 -110 90 -25 21 -54 47 -66 57 -12 10 -41 36 -66 58
-52 46 -161 142 -192 168 -12 10 -41 34 -65 55 -23 20 -53 46 -65 57 -22 19
-113 99 -166 145 -14 12 -50 43 -80 70 -84 74 -101 89 -153 134 -27 22 -61 52
-77 66 l-28 25 -1124 -1 c-617 -1 -1127 2 -1133 7 -7 5 -10 703 -9 2066 1
1132 2 2058 3 2058 372 4 5278 -2 5281 -6z"/>
<path d="M2427 5741 c-3 -5 -1 -2683 2 -2706 1 -7 122 -11 366 -11 l365 0 1
26 c0 14 2 491 2 1060 1 569 6 1037 10 1038 5 2 65 -50 133 -116 68 -66 134
-128 146 -136 12 -9 19 -16 15 -16 -4 0 12 -17 35 -37 23 -21 58 -54 78 -73
82 -77 355 -338 404 -385 84 -80 376 -359 441 -420 33 -31 137 -130 230 -220
94 -89 195 -186 225 -214 54 -51 265 -253 442 -421 l89 -86 552 2 c304 1 555
2 558 3 3 0 5 612 5 1359 l-1 1357 -365 0 -365 0 -2 -1044 c-1 -574 -3 -1045
-6 -1047 -2 -2 -35 26 -73 62 -239 228 -404 384 -440 419 -41 39 -301 286
-394 375 -27 25 -121 115 -211 200 -89 85 -179 171 -199 190 -20 19 -110 105
-200 190 -89 85 -184 175 -210 200 -26 25 -114 109 -196 187 -82 77 -180 170
-217 206 l-69 64 -574 0 c-316 0 -576 -3 -577 -6z"/>
</g>
</svg>
