<svg width="883" height="278" viewBox="0 0 883 278" fill="none" xmlns="http://www.w3.org/2000/svg">
<path d="M411.465 162C414.26 171.988 438 167 442.846 159.991L448.382 142.013C436 140.5 406.465 144.132 411.465 162ZM480.691 102.209C484.383 107.246 485.308 114.197 482.536 123.548L465.925 183.006H440.999V176.773C435.463 179.883 425.303 184.44 412.381 184.44C400.384 184.44 392.997 181.803 388.383 176.293C384.032 170.653 383.276 161.923 385.611 155.191C391.156 136.256 408.692 126.425 437.307 126.425H453.002C453.002 126.425 454.85 120.827 454.85 118.274C454.85 112.484 445.816 113.48 441.927 113.48C430.846 113.48 413.309 117.077 409.621 117.797L405.926 118.757L411.465 98.6187L413.313 98.1387C414.235 97.8987 431.774 93.5849 450.233 93.5849C461.308 93.5786 474.233 94.5386 480.691 102.209ZM382.847 101.489C386.536 106.286 386.536 113 384.695 121.628L367.152 183.486H338.538L356.077 120.911C358.847 113.48 352.375 114.44 345.924 114.44C335.768 114.44 323.771 119.234 320.079 120.911L302.537 183.486H273L297.923 95.4955H320.995L321.92 103.406C329.304 100.289 344.074 93.8154 358.847 93.8154C370.847 93.8186 378.231 96.4586 382.847 101.489Z" fill="#71798A"/>
<path fill-rule="evenodd" clip-rule="evenodd" d="M799.421 139.613L796.655 147.523H735.728C733.269 159.902 738.537 164.542 752.348 164.542C757.884 164.542 766.189 163.585 771.735 162.628C778.196 161.428 782.81 160.468 782.81 160.468L787.424 159.508L781.885 179.883L780.037 180.363C780.037 180.603 775.423 181.566 769.887 182.523C763.423 183.486 756.04 184.437 747.728 184.437C735.728 184.437 720.039 183.243 712.655 173.173C706.194 165.499 705.269 153.754 709.883 138.409C720.958 99.3324 751.423 93.5786 768.037 93.5786C781.882 93.5786 792.034 96.9387 797.577 104.129C804.861 114.071 802.97 128.542 799.421 139.613ZM741.267 130.499H773.573C776.537 123 776.537 111.317 764.345 111.317C753.264 111.32 745.887 117.077 741.267 130.499Z" fill="#71798A"/>
<path d="M554.544 113L562.853 95.0186H537.93L537.968 94.8907C538.923 91.6524 541.646 82.4167 543.469 72.48V72L514.848 77.5138C513.926 84.4677 510.234 92.3785 509.312 95.0154H493.617L489 112.997H504.695C500.784 126.201 486.5 171.5 492.695 177.966C497.312 183.96 507.462 184.437 513.926 184.437C526.848 184.437 538.849 181.566 539.771 181.326L541.622 180.846L547.158 161.185C547.158 161.185 522 165 520 162.5C515.845 157.306 533.313 113 533.313 113H554.544Z" fill="#71798A"/>
<path d="M707.544 113L715.853 95.0186H690.93L690.968 94.8907C691.923 91.6524 694.646 82.4167 696.469 72.48V72L667.848 77.5138C666.926 84.4677 663.234 92.3785 662.312 95.0154H646.617L642 112.997H657.695C653.784 126.201 639.5 171.5 645.695 177.966C650.312 183.96 660.462 184.437 666.926 184.437C679.848 184.437 691.849 181.566 692.771 181.326L694.622 180.846L700.158 161.185C700.158 161.185 675 165 673 162.5C668.845 157.306 686.313 113 686.313 113H707.544Z" fill="#71798A"/>
<path d="M609.005 112.665C613.616 112.665 619.155 113.385 623.772 114.342C627.495 114.92 631.14 115.856 634.85 116.499L637.616 96.5969C637.616 96.3601 626.541 93 611.768 93C585.926 93 568.387 102.591 563.773 119.372C561.004 128.243 564.692 134.237 568.387 138.314C571.153 140.234 573.001 141.671 575.773 142.871C577.615 143.828 580.387 144.548 581.309 145.268L590.537 148.382C598.849 151.022 600.696 152.219 599.774 156.296C597.924 161.809 593.313 164.206 581.309 164.206C577.615 164.206 571.153 163.249 566.536 162.293C561.003 161.093 557.309 160.133 557.309 160.133L554.539 159.409L549 179.548L550.847 180.271C551.77 180.511 565.614 183.865 577.615 183.865C596.079 183.865 621.002 181.228 627.463 156.539C630.23 146.711 627 139 623.772 136.4C616.832 131.581 609.563 129.49 601.618 126.809L600.693 126.569C593.31 124.409 590.534 122.972 591.459 119.376C592.384 116.262 595.154 112.665 609.005 112.665Z" fill="#71798A"/>
<path d="M876.037 118.274L882.501 95.0186L879.732 94.5418C879.732 94.5418 874.192 93.5817 868.656 93.5817C858.5 93.5817 851.114 97.8955 846.497 101.252V95.0186H823.421L798.492 183.007H827.113C827.113 183.007 840.076 131.187 845 121.5C848 117.554 852.961 116.114 859.422 116.114C865.881 116.114 873.267 117.554 873.267 117.554L876.037 118.274Z" fill="#71798A"/>
<path d="M194 184H159.22L89.02 117.09V184H66V99H101.991L171.051 164.675V99H194V184Z" fill="#50C929"/>
<path fill-rule="evenodd" clip-rule="evenodd" d="M37.6481 56C53.2461 22.9987 88.2809 -1.77989e-06 129 0C169.719 1.77989e-06 204.754 22.9987 220.352 56H232V90.3219C247.71 96.1225 259 112.144 259 131C259 149.856 247.71 165.877 232 171.678V224.891H171.135V277.986L110.237 224.891H27V171.678C11.2902 165.877 0 149.856 0 131C0 112.144 11.2902 96.1226 27 90.3219V56H37.6481ZM47.0001 173.344L47 204.891H117.731L151.135 234.014V204.891H212V76L47.0001 76V173.344ZM196.412 56C182.742 36.2386 158.691 22.1053 129 22.1053C99.3085 22.1053 75.2585 36.2386 61.5883 56H196.412Z" fill="#004FAB"/>
</svg>
